<?xml version="1.0" encoding="UTF-8" standalone="no"?>
<!DOCTYPE svg PUBLIC "-//W3C//DTD SVG 1.1//EN" "http://www.w3.org/Graphics/SVG/1.1/DTD/svg11.dtd">
<svg width="100%" height="100%" viewBox="0 0 9167 9167" version="1.1" xmlns="http://www.w3.org/2000/svg" xmlns:xlink="http://www.w3.org/1999/xlink" xml:space="preserve" xmlns:serif="http://www.serif.com/" style="fill-rule:evenodd;clip-rule:evenodd;stroke-linejoin:round;stroke-miterlimit:2;">
    <g transform="matrix(4.16667,0,0,4.16667,0,0)">
        <path d="M1909.31,787.029C1887.53,729.042 1859.76,673.422 1827.19,620.792C1816.78,603.962 1789,596.933 1778.05,617.016C1766.51,638.173 1753.68,655.722 1748.19,663.217C1748.14,663.287 1748.09,663.357 1748.04,663.427C1739.03,675.792 1738.07,692.283 1745.58,705.611C1809.81,819.57 1848.65,947.928 1849.85,1078.44C1850.06,1095.39 1849.73,1116.37 1848.47,1133.22C1847.44,1150.65 1845.4,1170.46 1842.49,1187.68C1835.12,1235.48 1820.76,1282.83 1805.2,1328.57C1801.51,1338.2 1796.32,1353.13 1792.2,1362.49L1785.21,1379.26C1782.6,1384.7 1776.33,1398.79 1773.74,1404.05C1771.06,1409.22 1764.12,1423.06 1761.33,1428.4C1752.82,1443.81 1743.2,1461 1733.81,1475.75C1689.65,1545.39 1634.06,1608.15 1570.74,1660.94C1507.24,1713.65 1435.35,1756.88 1358.83,1787.86C1342.51,1794.33 1323.7,1801.07 1307.15,1806.51C1301.71,1808.24 1285.87,1812.82 1280.88,1814.38C1274.8,1816.09 1260.75,1819.45 1254.34,1821.26C980.161,1887.53 672.641,1779.46 499.049,1557.3C378.06,1403.39 320.162,1198.81 348.493,1004.67C377.875,809.178 495.443,632.311 650.326,511.425C881.475,330.005 1223.7,300.806 1484.52,435.819C1502.16,444.952 1529.16,441.984 1544.48,429.331C1557.37,418.68 1559.77,411.934 1571.49,399.476C1587.26,382.715 1581.29,362.247 1564.53,352.283C1555.51,346.923 1546.27,341.624 1539.24,338.06C1225.83,177.366 817.695,220.038 551.219,452.908C392.545,589.68 275.224,779.508 243.287,988.745C190.375,1326.55 366.192,1681.94 666.583,1845C820.58,1931 1000.44,1971.49 1176.48,1954C1195.74,1952.35 1220.76,1948.64 1239.76,1945.26C1267.18,1940.46 1295.88,1933.91 1322.63,1926.16C1431.23,1895.46 1533.68,1842.67 1623.22,1774.12C1701.38,1713.92 1770.61,1641.2 1825.62,1559.28C1847.27,1527.38 1867.14,1492.63 1884.36,1458.17C1891.1,1444.14 1900.41,1424.07 1906.29,1409.55C1911.13,1398.57 1917.45,1381.03 1921.78,1369.7C1923.9,1363.09 1929.77,1345.76 1931.73,1339.35C1934.33,1329.38 1937.85,1318.5 1940.22,1308.55C1948.5,1274.61 1954.97,1238.45 1958.95,1203.77C1977.35,1063.13 1959.77,919.473 1909.31,787.029Z" style="fill:white;fill-rule:nonzero;"/>
        <path d="M1825.6,357.276C1810.49,332.13 1777.85,323.998 1752.7,339.112C1746.21,343.013 1740.24,347.369 1734.41,351.845C1707.66,371.795 1679.7,403.912 1657.13,428.107C1458.94,641.847 1279.34,874.515 1131.16,1126.23C1116.42,1150.74 1101.13,1177.64 1088.76,1203.46C1076.85,1227.79 1064.17,1254.59 1052.84,1279.34C974.898,1136.65 852.268,980.057 706.704,915.979C648.506,891.898 590.919,953.182 619.737,1010.06C628.279,1026.83 638.252,1042.47 648.233,1058.23C696.889,1134.89 754.071,1204.91 804.602,1279.96C868.849,1373.99 922.962,1473.55 975.297,1574.44C1011.35,1642.48 1113.46,1632.27 1134.96,1557.65C1171.06,1481.72 1208.15,1406.71 1247.83,1332.75C1260.5,1308.75 1275.14,1283.21 1287.31,1259.05C1299.15,1235.31 1312.46,1207.86 1324.77,1184.29C1426.83,984.503 1549.27,796.107 1681.67,614.553C1704.11,583.949 1734.75,542.518 1757.71,512.251C1772.31,492.691 1795.71,463.847 1808.26,443.519C1816.07,431.257 1823.39,418.744 1829.07,405.172C1835.38,390.077 1834.65,372.352 1825.6,357.276Z" style="fill:white;fill-rule:nonzero;"/>
    </g>
</svg>
