<?xml version="1.0" encoding="UTF-8"?> <!-- Generator: Adobe Illustrator 16.0.0, SVG Export Plug-In . SVG Version: 6.00 Build 0) --> <svg xmlns="http://www.w3.org/2000/svg" xmlns:xlink="http://www.w3.org/1999/xlink" id="Capa_1" x="0px" y="0px" width="30px" height="28.557px" viewBox="109.151 109.881 30 28.557" xml:space="preserve"> <g> <g> <path fill="#FFE200" d="M115.883,138.438c0.348,0,0.732-0.087,1.141-0.266l7.134-3.893l7.125,3.893 c0.41,0.179,0.791,0.266,1.143,0.266c1.084,0,1.814-0.848,1.758-2.226l-0.938-7.878l5.33-5.471c1.109-1.465,0.56-3.032-1.2-3.5 l-7.909-1.274l-3.515-7.028c-0.498-0.786-1.201-1.179-1.892-1.179c-0.664,0-1.337,0.359-1.865,1.078l-4.043,7.129l-7.239,1.216 c-1.764,0.51-2.292,2.094-1.181,3.558l5.317,5.472l-0.924,7.878C114.069,137.59,114.8,138.438,115.883,138.438z M111.655,121.529 l6.879-1.156l1.083-0.19l0.542-0.952l3.881-6.84l3.347,6.723l0.527,1.069l1.171,0.19l7.5,1.201l-4.98,5.149l-0.788,0.79 l0.144,1.085l0.85,7.23l-6.562-3.57l-1.092-0.614l-1.112,0.614l-6.547,3.57l0.85-7.23l0.131-1.085l-0.774-0.79L111.655,121.529z"></path> </g> </g> </svg> 