<?xml version="1.0" encoding="UTF-8" standalone="no"?>
<!DOCTYPE svg PUBLIC "-//W3C//DTD SVG 1.1//EN" "http://www.w3.org/Graphics/SVG/1.1/DTD/svg11.dtd">
<svg width="100%" height="100%" viewBox="0 0 14 14" version="1.1" xmlns="http://www.w3.org/2000/svg" xmlns:xlink="http://www.w3.org/1999/xlink" xml:space="preserve" xmlns:serif="http://www.serif.com/" style="fill-rule:evenodd;clip-rule:evenodd;stroke-linejoin:round;stroke-miterlimit:2;">
    <g>
        <path d="M13.722,5.368C13.535,5.182 13.311,5.09 13.045,5.09L0.954,5.09C0.689,5.09 0.463,5.183 0.278,5.368C0.092,5.554 0,5.779 0,6.044L0,7.953C0,8.219 0.093,8.443 0.278,8.629C0.463,8.815 0.689,8.907 0.954,8.907L13.045,8.907C13.31,8.907 13.535,8.814 13.722,8.629C13.907,8.443 14,8.219 14,7.953L14,6.044C14,5.779 13.908,5.554 13.722,5.368Z" style="fill:rgb(142,51,51);fill-rule:nonzero;"/>
    </g>
</svg>
