<?xml version="1.0" encoding="UTF-8"?> <!-- Generator: Adobe Illustrator 16.0.0, SVG Export Plug-In . SVG Version: 6.00 Build 0) --> <svg xmlns="http://www.w3.org/2000/svg" xmlns:xlink="http://www.w3.org/1999/xlink" id="Capa_1" x="0px" y="0px" width="14px" height="14px" viewBox="193.996 193.997 14 14" xml:space="preserve"> <g> <path fill="#01DF74" d="M207.718,199.366c-0.186-0.186-0.411-0.278-0.676-0.278h-4.137v-4.136c0-0.265-0.093-0.491-0.278-0.676 s-0.41-0.278-0.676-0.278h-1.909c-0.265,0-0.491,0.093-0.676,0.278s-0.278,0.411-0.278,0.676v4.136h-4.136 c-0.265,0-0.491,0.093-0.676,0.279c-0.186,0.186-0.278,0.411-0.278,0.676v1.91c0,0.265,0.093,0.49,0.278,0.676 s0.411,0.278,0.676,0.278h4.136v4.137c0,0.265,0.093,0.49,0.278,0.676s0.411,0.278,0.676,0.278h1.909 c0.265,0,0.49-0.093,0.676-0.278s0.278-0.411,0.278-0.676v-4.137h4.137c0.266,0,0.49-0.093,0.676-0.278s0.279-0.411,0.279-0.676 v-1.91C207.996,199.777,207.904,199.552,207.718,199.366z"></path> </g> </svg> 