<?xml version="1.0" encoding="UTF-8" standalone="no"?>
<!DOCTYPE svg PUBLIC "-//W3C//DTD SVG 1.1//EN" "http://www.w3.org/Graphics/SVG/1.1/DTD/svg11.dtd">
<svg width="100%" height="100%" viewBox="0 0 14 14" version="1.1" xmlns="http://www.w3.org/2000/svg" xmlns:xlink="http://www.w3.org/1999/xlink" xml:space="preserve" xmlns:serif="http://www.serif.com/" style="fill-rule:evenodd;clip-rule:evenodd;stroke-linejoin:round;stroke-miterlimit:2;">
    <g>
        <path d="M13.722,5.369C13.536,5.183 13.311,5.091 13.046,5.091L8.909,5.091L8.909,0.955C8.909,0.69 8.816,0.464 8.631,0.279C8.446,0.094 8.221,0.001 7.955,0.001L6.046,0.001C5.781,0.001 5.555,0.094 5.37,0.279C5.185,0.464 5.092,0.69 5.092,0.955L5.092,5.091L0.956,5.091C0.691,5.091 0.465,5.184 0.28,5.37C0.094,5.556 0.002,5.781 0.002,6.046L0.002,7.956C0.002,8.221 0.095,8.446 0.28,8.632C0.465,8.818 0.691,8.91 0.956,8.91L5.092,8.91L5.092,13.047C5.092,13.312 5.185,13.537 5.37,13.723C5.555,13.909 5.781,14.001 6.046,14.001L7.955,14.001C8.22,14.001 8.445,13.908 8.631,13.723C8.817,13.538 8.909,13.312 8.909,13.047L8.909,8.91L13.046,8.91C13.312,8.91 13.536,8.817 13.722,8.632C13.908,8.447 14.001,8.221 14.001,7.956L14.001,6.046C14,5.78 13.908,5.555 13.722,5.369Z" style="fill:rgb(45,87,41);fill-rule:nonzero;"/>
    </g>
</svg>
